<?xml version="1.0" encoding="UTF-8"?>
<svg width="24px" height="24px" viewBox="0 0 24 24" stroke-width="1.5" fill="none" xmlns="http://www.w3.org/2000/svg" color="#0a3d85">
  <path d="M16 18a2 2 0 100-4 2 2 0 000 4zM8 10a2 2 0 100-4 2 2 0 000 4z" stroke="#0a3d85" stroke-width="1.5" stroke-linecap="round" stroke-linejoin="round"></path>
  <path d="M16 18c0-2.5-1.5-5-4-5s-4 2.5-4 5M8 10c0 2.5 1.5 5 4 5" stroke="#0a3d85" stroke-width="1.5" stroke-linecap="round" stroke-linejoin="round"></path>
  <path d="M3 16.5V18a2 2 0 002 2h14a2 2 0 002-2v-5a2 2 0 00-2-2h-4" stroke="#0a3d85" stroke-width="1.5" stroke-linecap="round" stroke-linejoin="round"></path>
  <path d="M3 8a2 2 0 012-2h4a2 2 0 012 2v1" stroke="#0a3d85" stroke-width="1.5" stroke-linecap="round" stroke-linejoin="round"></path>
</svg>